<?xml version="1.0" encoding="iso-8859-1"?>
<!-- Uploaded to: SVG Repo, www.svgrepo.com, Generator: SVG Repo Mixer Tools -->
<!DOCTYPE svg PUBLIC "-//W3C//DTD SVG 1.1//EN" "http://www.w3.org/Graphics/SVG/1.1/DTD/svg11.dtd">
<svg fill="#000000" height="800px" width="800px" version="1.1" id="Capa_1" xmlns="http://www.w3.org/2000/svg" xmlns:xlink="http://www.w3.org/1999/xlink" 
	 viewBox="0 0 438 438" xml:space="preserve">
<g>
	<path d="M407.259,87.262H30.741C13.791,87.262,0,101.052,0,118.003v201.995c0,16.951,13.791,30.741,30.741,30.741h376.518
		c16.951,0,30.741-13.79,30.741-30.741V118.003C438,101.052,424.21,87.262,407.259,87.262z M416.831,142.802H428v3.46H10v-11.959
		h9.351c2.761,0,5-2.239,5-5s-2.239-5-5-5H10v-3.041h418v11.54h-11.17c-2.762,0-5,2.239-5,5S414.069,142.802,416.831,142.802z
		 M30.741,97.262h376.518c9.074,0,16.787,5.867,19.594,14H11.147C13.954,103.129,21.667,97.262,30.741,97.262z M407.259,340.739
		H30.741c-4.24,0-8.184-1.284-11.473-3.477H53.08c2.761,0,5-2.239,5-5s-2.239-5-5-5H11.339c-0.596-1.587-1.019-3.257-1.209-5h12.954
		c2.761,0,5-2.239,5-5s-2.239-5-5-5H10v-156h418v163.736C428,331.434,418.696,340.739,407.259,340.739z"/>
	<path d="M412.75,164.262H291.418c-2.762,0-5,2.239-5,5v156c0,2.761,2.238,5,5,5H412.75c2.762,0,5-2.239,5-5v-156
		C417.75,166.501,415.512,164.262,412.75,164.262z M315.581,228.834c0-4.48,0.816-8.773,2.299-12.742
		c12.179,6.957,34.629,15.797,70.709,16.552v19.017c0,18.891-14.425,34.475-32.838,36.32v-28.219c0-2.761-2.238-5-5-5h-1.194l1.5-10
		h11.694c2.762,0,5-2.239,5-5s-2.238-5-5-5h-16c-2.475,0-4.577,1.811-4.944,4.258l-3,20c-0.216,1.439,0.206,2.901,1.155,4.004
		c0.95,1.103,2.334,1.737,3.789,1.737h2v22.842c-17.118-3.009-30.17-17.975-30.17-35.942V228.834z M322.636,207.297
		c6.648-9.066,17.37-14.967,29.449-14.967c18.012,0,33.009,13.117,35.965,30.298C354.213,221.813,333.611,213.63,322.636,207.297z
		 M323.472,288.281c7.897,6.184,17.828,9.885,28.613,9.885c10.789,0,20.723-3.703,28.621-9.891
		c6.408,8.774,10.033,19.993,10.343,31.988h-77.922C313.443,308.34,317.127,297.003,323.472,288.281z M407.75,320.262h-6.703
		c-0.328-14.633-4.951-28.371-13.122-39.002c6.657-8.047,10.662-18.363,10.662-29.598v-22.828c0-25.643-20.861-46.504-46.504-46.504
		s-46.504,20.861-46.504,46.504v22.828c0,11.239,4.009,21.559,10.67,29.607c-8.09,10.568-12.788,24.457-13.124,38.993h-6.708v-146
		H407.75V320.262z"/>
	<path d="M251.573,197.262H39.75c-2.761,0-5,2.239-5,5s2.239,5,5,5h211.823c2.762,0,5-2.239,5-5S254.334,197.262,251.573,197.262z"
		/>
	<path d="M251.573,240.762H39.75c-2.761,0-5,2.239-5,5s2.239,5,5,5h211.823c2.762,0,5-2.239,5-5S254.334,240.762,251.573,240.762z"
		/>
	<path d="M251.573,284.262H39.75c-2.761,0-5,2.239-5,5s2.239,5,5,5h211.823c2.762,0,5-2.239,5-5S254.334,284.262,251.573,284.262z"
		/>
	<path d="M39.75,193.262h37c2.761,0,5-2.239,5-5s-2.239-5-5-5h-37c-2.761,0-5,2.239-5,5S36.989,193.262,39.75,193.262z"/>
	<path d="M39.75,236.762h37c2.761,0,5-2.239,5-5s-2.239-5-5-5h-37c-2.761,0-5,2.239-5,5S36.989,236.762,39.75,236.762z"/>
	<path d="M39.75,280.262h37c2.761,0,5-2.239,5-5s-2.239-5-5-5h-37c-2.761,0-5,2.239-5,5S36.989,280.262,39.75,280.262z"/>
	<path d="M68.083,327.259c-1.32,0-2.6,0.54-3.54,1.47c-0.93,0.93-1.46,2.22-1.46,3.53c0,1.32,0.53,2.61,1.46,3.54
		c0.94,0.93,2.22,1.46,3.54,1.46c1.32,0,2.6-0.53,3.53-1.46c0.94-0.93,1.47-2.22,1.47-3.54c0-1.31-0.53-2.6-1.47-3.53
		C70.683,327.799,69.403,327.259,68.083,327.259z"/>
	<path d="M332.017,244.762c2.762,0,5-2.239,5-5s-2.238-5-5-5h-5.334c-2.762,0-5,2.239-5,5s2.238,5,5,5H332.017z"/>
	<path d="M403.003,132.799c-1.32,0-2.61,0.54-3.54,1.47c-0.93,0.93-1.46,2.21-1.46,3.53c0,1.32,0.53,2.61,1.46,3.54
		s2.22,1.46,3.54,1.46c1.31,0,2.6-0.53,3.53-1.46c0.93-0.93,1.47-2.22,1.47-3.54c0-1.31-0.54-2.6-1.47-3.53
		C405.603,133.339,404.313,132.799,403.003,132.799z"/>
</g>
</svg>